<svg width="126" height="126" viewBox="0 0 126 126" fill="none" xmlns="http://www.w3.org/2000/svg">
<g clip-path="url(#clip0_105_358)">
<path d="M63 59.5C67.8456 59.5 72.5825 58.0631 76.6115 55.371C80.6405 52.6789 83.7807 48.8525 85.6351 44.3758C87.4894 39.899 87.9746 34.9728 87.0292 30.2203C86.0839 25.4678 83.7505 21.1023 80.3241 17.6759C76.8977 14.2495 72.5323 11.9161 67.7797 10.9708C63.0272 10.0254 58.101 10.5106 53.6243 12.365C49.1475 14.2193 45.3211 17.3595 42.629 21.3885C39.9369 25.4175 38.5 30.1544 38.5 35C38.5 41.4978 41.0812 47.7295 45.6759 52.3241C50.2705 56.9188 56.5022 59.5 63 59.5ZM63 17.5C66.4612 17.5 69.8446 18.5264 72.7225 20.4493C75.6003 22.3722 77.8434 25.1053 79.1679 28.3031C80.4924 31.5008 80.839 35.0194 80.1637 38.4141C79.4885 41.8088 77.8218 44.927 75.3744 47.3744C72.927 49.8218 69.8088 51.4885 66.4141 52.1638C63.0194 52.839 59.5007 52.4924 56.303 51.1679C53.1053 49.8434 50.3722 47.6003 48.4493 44.7225C46.5264 41.8446 45.5 38.4612 45.5 35C45.5 30.3587 47.3437 25.9075 50.6256 22.6256C53.9075 19.3438 58.3587 17.5 63 17.5Z" fill="#031C1D" fill-opacity="0.5"/>
<path d="M106.645 85.295C101.032 79.3626 94.2682 74.6372 86.7669 71.4078C79.2656 68.1783 71.1844 66.5127 63.0175 66.5127C54.8506 66.5127 46.7694 68.1783 39.2681 71.4078C31.7668 74.6372 25.0029 79.3626 19.39 85.295C18.1731 86.5948 17.4972 88.3095 17.5 90.09V108.5C17.5 110.357 18.2375 112.137 19.5503 113.45C20.863 114.763 22.6435 115.5 24.5 115.5H101.5C103.357 115.5 105.137 114.763 106.45 113.45C107.763 112.137 108.5 110.357 108.5 108.5V90.09C108.512 88.3143 107.849 86.6002 106.645 85.295ZM101.5 108.5H24.5V90.055C29.4603 84.8319 35.4315 80.6727 42.0503 77.8306C48.669 74.9884 55.7968 73.5227 63 73.5227C70.2032 73.5227 77.331 74.9884 83.9498 77.8306C90.5685 80.6727 96.5397 84.8319 101.5 90.055V108.5Z" fill="#031C1D" fill-opacity="0.5"/>
</g>
<defs>
<clipPath id="clip0_105_358">
<rect width="126" height="126" fill="white"/>
</clipPath>
</defs>
</svg>
