<svg width="71" height="71" viewBox="0 0 71 71" fill="none" xmlns="http://www.w3.org/2000/svg">
<path d="M28.6935 32.342V48.8101L27.5899 49.3596L13.2432 42.2331V24.3741L27.5899 17.2305L41.9367 24.3741V37.1502H39.7295V26.8469L28.6935 32.342ZM27.5899 19.7033L23.4342 21.7639L34.1425 27.156L38.3672 25.061L27.5899 19.7033ZM26.4863 46.3544V32.342L15.4504 26.8469V40.8594L26.4863 46.3544ZM16.8126 25.061L27.5899 30.4187L31.6939 28.3924L20.9683 23.0003L16.8126 25.061ZM35.3151 45.9423V43.7443H46.3511V45.9423H35.3151ZM35.3151 39.3482H46.3511V41.5462H35.3151V39.3482ZM30.9007 50.3384V48.1403H33.1079V50.3384H30.9007ZM30.9007 41.5462V39.3482H33.1079V41.5462H30.9007ZM30.9007 45.9423V43.7443H33.1079V45.9423H30.9007ZM35.3151 50.3384V48.1403H46.3511V50.3384H35.3151Z" fill="#074143"/>
</svg>
