<svg width="85" height="85" viewBox="0 0 85 85" fill="none" xmlns="http://www.w3.org/2000/svg">
<circle opacity="0.5" cx="42.5" cy="42.5" r="42.5" fill="#59ED9F"/>
<path d="M42.4358 69.2595C41.8134 69.2595 41.1963 69.1461 40.5846 68.9194C39.9729 68.6948 39.435 68.3494 38.9708 67.8831L35.2877 64.5625C29.5768 59.3757 24.5397 54.3311 20.1764 49.4288C15.8088 44.5286 13.625 39.4348 13.625 34.1475C13.625 30.0665 15.011 26.64 17.783 23.868C20.555 21.096 23.9815 19.71 28.0625 19.71C30.4024 19.71 32.8397 20.3014 35.3743 21.4842C37.9089 22.667 40.2841 24.8978 42.5 28.1768C44.718 24.8978 47.0933 22.667 49.6257 21.4842C52.1581 20.3014 54.5954 19.71 56.9375 19.71C61.0185 19.71 64.445 21.096 67.217 23.868C69.989 26.64 71.375 30.0665 71.375 34.1475C71.375 39.5567 69.1024 44.7563 64.5573 49.7464C60.0122 54.7364 55.0371 59.6794 49.6321 64.5753L45.9682 67.8831C45.5019 68.3494 44.9533 68.6948 44.3223 68.9194C43.6914 69.144 43.0636 69.2573 42.439 69.2595" fill="#14B05D"/>
</svg>
