<svg width="85" height="85" viewBox="0 0 85 85" fill="none" xmlns="http://www.w3.org/2000/svg">
<circle opacity="0.5" cx="42.5" cy="42.5" r="42.5" fill="#59ED9F"/>
<path d="M54.6878 20.125C49.9753 20.125 45.4524 22.3188 42.5003 25.7854C39.5482 22.3188 35.0253 20.125 30.3128 20.125C21.9712 20.125 15.417 26.6792 15.417 35.0208C15.417 45.2583 24.6253 53.6 38.5732 66.275L42.5003 69.8229L46.4274 66.2479C60.3753 53.6 69.5837 45.2583 69.5837 35.0208C69.5837 26.6792 63.0295 20.125 54.6878 20.125ZM42.7712 62.2396L42.5003 62.5104L42.2295 62.2396C29.3378 50.5667 20.8337 42.8479 20.8337 35.0208C20.8337 29.6042 24.8962 25.5417 30.3128 25.5417C34.4837 25.5417 38.5462 28.2229 39.9816 31.9333H45.0462C46.4545 28.2229 50.517 25.5417 54.6878 25.5417C60.1045 25.5417 64.167 29.6042 64.167 35.0208C64.167 42.8479 55.6628 50.5667 42.7712 62.2396Z" fill="#121C17"/>
</svg>
