<svg width="33" height="40" viewBox="0 0 33 40" fill="none" xmlns="http://www.w3.org/2000/svg">
<path fill-rule="evenodd" clip-rule="evenodd" d="M8.25 6.25C8.25 5.91848 8.35865 5.60054 8.55205 5.36612C8.74544 5.1317 9.00775 5 9.28125 5H27.8438C28.1173 5 28.3796 5.1317 28.573 5.36612C28.7664 5.60054 28.875 5.91848 28.875 6.25V16.25C28.875 16.5815 28.7664 16.8995 28.573 17.1339C28.3796 17.3683 28.1173 17.5 27.8438 17.5H9.28125C9.00775 17.5 8.74544 17.3683 8.55205 17.1339C8.35865 16.8995 8.25 16.5815 8.25 16.25V12.5H6.1875V20H16.5C16.7735 20 17.0358 20.1317 17.2292 20.3661C17.4226 20.6005 17.5312 20.9185 17.5312 21.25V25H18.5625C18.836 25 19.0983 25.1317 19.2917 25.3661C19.4851 25.6005 19.5938 25.9185 19.5938 26.25V35C19.5938 35.3315 19.4851 35.6495 19.2917 35.8839C19.0983 36.1183 18.836 36.25 18.5625 36.25H14.4375C14.164 36.25 13.9017 36.1183 13.7083 35.8839C13.5149 35.6495 13.4062 35.3315 13.4062 35V26.25C13.4062 25.9185 13.5149 25.6005 13.7083 25.3661C13.9017 25.1317 14.164 25 14.4375 25H15.4688V22.5H5.15625C4.88275 22.5 4.62044 22.3683 4.42705 22.1339C4.23365 21.8995 4.125 21.5815 4.125 21.25V11.25C4.125 10.9185 4.23365 10.6005 4.42705 10.3661C4.62044 10.1317 4.88275 10 5.15625 10H8.25V6.25Z" fill="#074143"/>
</svg>
