<svg width="34" height="34" viewBox="0 0 34 34" fill="none" xmlns="http://www.w3.org/2000/svg">
<path d="M4.25 15.5833L15.5833 4.25M4.25 24.0833L24.0833 4.25M4.25 8.5C4.25 7.37283 4.69777 6.29183 5.4948 5.4948C6.29183 4.69777 7.37283 4.25 8.5 4.25H25.5C26.6272 4.25 27.7082 4.69777 28.5052 5.4948C29.3022 6.29183 29.75 7.37283 29.75 8.5V25.5C29.75 26.6272 29.3022 27.7082 28.5052 28.5052C27.7082 29.3022 26.6272 29.75 25.5 29.75H8.5C7.37283 29.75 6.29183 29.3022 5.4948 28.5052C4.69777 27.7082 4.25 26.6272 4.25 25.5V8.5Z" stroke="#074143" stroke-width="2" stroke-linecap="round" stroke-linejoin="round"/>
</svg>
