<svg width="31" height="31" viewBox="0 0 31 31" fill="none" xmlns="http://www.w3.org/2000/svg">
<g clip-path="url(#clip0_29_92)">
<path d="M15.4999 14.6391C16.6921 14.6391 17.8575 14.2855 18.8488 13.6232C19.8401 12.9608 20.6127 12.0194 21.0689 10.918C21.5251 9.81658 21.6445 8.60459 21.4119 7.43532C21.1793 6.26604 20.6052 5.19199 19.7622 4.34899C18.9192 3.50599 17.8452 2.9319 16.6759 2.69932C15.5066 2.46674 14.2946 2.58611 13.1932 3.04234C12.0918 3.49856 11.1504 4.27116 10.488 5.26242C9.82569 6.25369 9.47217 7.41909 9.47217 8.61128C9.47217 10.2099 10.1072 11.7431 11.2377 12.8736C12.3681 14.004 13.9013 14.6391 15.4999 14.6391ZM15.4999 4.30572C16.3515 4.30572 17.1839 4.55824 17.892 5.03134C18.6 5.50444 19.1519 6.17687 19.4778 6.96361C19.8036 7.75035 19.8889 8.61605 19.7228 9.45125C19.5566 10.2864 19.1466 11.0536 18.5444 11.6558C17.9423 12.2579 17.1751 12.668 16.3399 12.8341C15.5047 13.0002 14.639 12.915 13.8523 12.5891C13.0655 12.2632 12.3931 11.7114 11.92 11.0033C11.4469 10.2953 11.1944 9.46283 11.1944 8.61128C11.1944 7.46937 11.648 6.37424 12.4555 5.56679C13.2629 4.75934 14.358 4.30572 15.4999 4.30572Z" fill="#031C1D"/>
<path d="M26.238 20.9853C24.8571 19.5257 23.193 18.3631 21.3474 17.5686C19.5018 16.7741 17.5136 16.3643 15.5043 16.3643C13.495 16.3643 11.5067 16.7741 9.66119 17.5686C7.81563 18.3631 6.1515 19.5257 4.77054 20.9853C4.47115 21.3051 4.30486 21.727 4.30554 22.165V26.6945C4.30554 27.1512 4.48699 27.5893 4.80997 27.9123C5.13295 28.2353 5.571 28.4167 6.02777 28.4167H24.9722C25.429 28.4167 25.867 28.2353 26.19 27.9123C26.513 27.5893 26.6944 27.1512 26.6944 26.6945V22.165C26.6975 21.7281 26.5343 21.3064 26.238 20.9853ZM24.9722 26.6945H6.02777V22.1564C7.24816 20.8714 8.71727 19.8481 10.3457 19.1488C11.9741 18.4495 13.7278 18.0889 15.5 18.0889C17.2722 18.0889 19.0259 18.4495 20.6543 19.1488C22.2827 19.8481 23.7518 20.8714 24.9722 22.1564V26.6945Z" fill="#031C1D"/>
</g>
<defs>
<clipPath id="clip0_29_92">
<rect width="31" height="31" fill="white"/>
</clipPath>
</defs>
</svg>
