<svg width="34" height="34" viewBox="0 0 34 34" fill="none" xmlns="http://www.w3.org/2000/svg">
<path d="M26.9874 6.95656C25.6884 5.64488 24.1413 4.60485 22.4364 3.89707C20.7314 3.1893 18.9026 2.82794 17.0566 2.83406C9.32155 2.83406 3.01739 9.13823 3.01739 16.8732C3.01739 19.3524 3.66905 21.7607 4.88739 23.8857L2.90405 31.1674L10.3416 29.2124C12.3957 30.3316 14.7049 30.9266 17.0566 30.9266C24.7916 30.9266 31.0957 24.6224 31.0957 16.8874C31.0957 13.1332 29.6366 9.60573 26.9874 6.95656ZM17.0566 28.5466C14.9599 28.5466 12.9057 27.9799 11.1066 26.9174L10.6816 26.6624L6.26155 27.8241L7.43739 23.5174L7.15405 23.0782C5.98891 21.2182 5.37036 19.068 5.36905 16.8732C5.36905 10.4416 10.6107 5.19989 17.0424 5.19989C20.1591 5.19989 23.0916 6.41823 25.2874 8.62823C26.3748 9.71037 27.2366 10.9977 27.8227 12.4154C28.4088 13.8332 28.7075 15.3533 28.7016 16.8874C28.7299 23.3191 23.4882 28.5466 17.0566 28.5466ZM23.4599 19.8199C23.1057 19.6499 21.3774 18.7999 21.0657 18.6724C20.7399 18.5591 20.5132 18.5024 20.2724 18.8424C20.0316 19.1966 19.3657 19.9899 19.1674 20.2166C18.9691 20.4574 18.7566 20.4857 18.4024 20.3016C18.0482 20.1316 16.9149 19.7491 15.5832 18.5591C14.5349 17.6241 13.8407 16.4766 13.6282 16.1224C13.4299 15.7682 13.5999 15.5841 13.7841 15.3999C13.9399 15.2441 14.1382 14.9891 14.3082 14.7907C14.4782 14.5924 14.5491 14.4366 14.6624 14.2099C14.7757 13.9691 14.7191 13.7707 14.6341 13.6007C14.5491 13.4307 13.8407 11.7024 13.5574 10.9941C13.2741 10.3141 12.9766 10.3991 12.7641 10.3849H12.0841C11.8432 10.3849 11.4749 10.4699 11.1491 10.8241C10.8374 11.1782 9.93072 12.0282 9.93072 13.7566C9.93072 15.4849 11.1916 17.1566 11.3616 17.3832C11.5316 17.6241 13.8407 21.1657 17.3541 22.6816C18.1899 23.0499 18.8416 23.2624 19.3516 23.4182C20.1874 23.6874 20.9524 23.6449 21.5616 23.5599C22.2416 23.4607 23.6441 22.7099 23.9274 21.8882C24.2249 21.0666 24.2249 20.3724 24.1257 20.2166C24.0266 20.0607 23.8141 19.9899 23.4599 19.8199Z" fill="#121C17"/>
</svg>
