<svg width="40" height="36" viewBox="0 0 40 36" fill="none" xmlns="http://www.w3.org/2000/svg">
<path d="M19.9999 9.75C21.105 9.75 22.1648 10.1451 22.9462 10.8483C23.7276 11.5516 24.1666 12.5054 24.1666 13.5C24.1666 13.9925 24.0588 14.4801 23.8494 14.9351C23.64 15.39 23.3331 15.8034 22.9462 16.1517C22.5593 16.4999 22.1 16.7761 21.5944 16.9645C21.0889 17.153 20.5471 17.25 19.9999 17.25C18.8949 17.25 17.835 16.8549 17.0536 16.1517C16.2722 15.4484 15.8333 14.4946 15.8333 13.5C15.8333 12.5054 16.2722 11.5516 17.0536 10.8483C17.835 10.1451 18.8949 9.75 19.9999 9.75ZM19.9999 3C23.0941 3 26.0616 4.10625 28.2495 6.07538C30.4374 8.04451 31.6666 10.7152 31.6666 13.5C31.6666 21.375 19.9999 33 19.9999 33C19.9999 33 8.33325 21.375 8.33325 13.5C8.33325 10.7152 9.56242 8.04451 11.7503 6.07538C13.9383 4.10625 16.9057 3 19.9999 3ZM19.9999 6C17.7898 6 15.6702 6.79018 14.1074 8.1967C12.5446 9.60322 11.6666 11.5109 11.6666 13.5C11.6666 15 11.6666 18 19.9999 28.065C28.3333 18 28.3333 15 28.3333 13.5C28.3333 11.5109 27.4553 9.60322 25.8925 8.1967C24.3297 6.79018 22.2101 6 19.9999 6Z" fill="#121C17"/>
</svg>
